<svg xmlns="http://www.w3.org/2000/svg" version="1.1" width="830px" height="300px" style="shape-rendering:geometricPrecision; text-rendering:geometricPrecision; image-rendering:optimizeQuality; fill-rule:evenodd; clip-rule:evenodd" xmlns:xlink="http://www.w3.org/1999/xlink">
<g><path style="opacity:1" fill="#3b559f" d="M 273.5,38.5 C 276.287,39.4767 279.287,39.81 282.5,39.5C 282.197,42.5876 283.53,44.2542 286.5,44.5C 286.5,115.5 286.5,186.5 286.5,257.5C 284.24,258.139 282.24,259.306 280.5,261C 194.501,261.5 108.501,261.667 22.5,261.5C 19.4821,260.647 17.6488,258.647 17,255.5C 16.3333,185.167 16.3333,114.833 17,44.5C 17.7739,42.0607 19.2739,40.2273 21.5,39C 105.499,38.5 189.499,38.3333 273.5,38.5 Z M 101.5,162.5 C 101.174,181.41 101.507,200.243 102.5,219C 124.167,219.667 145.833,219.667 167.5,219C 190.679,215.817 202.679,202.484 203.5,179C 204.525,167.72 200.858,158.386 192.5,151C 193.044,150.283 193.711,149.783 194.5,149.5C 195.301,151.793 195.968,151.46 196.5,148.5C 196.167,148.5 195.833,148.5 195.5,148.5C 204.618,131.637 204.785,114.637 196,97.5C 187.177,86.7114 175.677,81.3781 161.5,81.5C 146.5,81.5 131.5,81.5 116.5,81.5C 116.333,98.5033 116.5,115.503 117,132.5C 118.356,133.38 119.856,133.714 121.5,133.5C 135.837,133.667 150.171,133.5 164.5,133C 172.079,130.517 174.579,125.35 172,117.5C 170.833,113.667 168.333,111.167 164.5,110C 153.505,109.5 142.505,109.333 131.5,109.5C 131.666,114.844 131.499,120.177 131,125.5C 129.855,125.381 128.688,125.048 127.5,124.5C 127.169,118.196 126.669,118.53 126,125.5C 125.5,118.174 125.334,110.841 125.5,103.5C 139.892,103.07 154.226,103.57 168.5,105C 172.275,106.442 175.108,108.942 177,112.5C 178.456,118.097 178.789,123.763 178,129.5C 175.845,135.323 171.678,138.49 165.5,139C 156.333,139.167 147.167,139.333 138,139.5C 128.475,139.498 119.308,138.832 110.5,137.5C 110.5,116.833 110.5,96.1667 110.5,75.5C 132.186,75.2348 153.853,75.5681 175.5,76.5C 194.126,81.2994 204.959,93.2994 208,112.5C 209.983,125.895 207.817,138.561 201.5,150.5C 211.58,168.535 212.08,186.868 203,205.5C 195.141,216.234 184.641,222.734 171.5,225C 146.169,225.5 120.836,225.667 95.5,225.5C 95.5,175.5 95.5,125.5 95.5,75.5C 97.5,75.5 99.5,75.5 101.5,75.5C 101.5,104.5 101.5,133.5 101.5,162.5 Z M 179.5,92.5 C 196.025,106.672 198.859,123.339 188,142.5C 185.131,145.704 181.965,148.537 178.5,151C 194.85,162.727 199.016,177.894 191,196.5C 185.793,204.19 178.627,209.024 169.5,211C 149.836,211.5 130.169,211.667 110.5,211.5C 110.333,194.83 110.5,178.163 111,161.5C 129.757,162.493 148.59,162.826 167.5,162.5C 178.536,167.884 182.036,176.551 178,188.5C 175.314,194.181 170.814,197.015 164.5,197C 151.504,197.5 138.504,197.667 125.5,197.5C 125.5,190.5 125.5,183.5 125.5,176.5C 127.5,176.5 129.5,176.5 131.5,176.5C 131.197,181.43 131.531,186.263 132.5,191C 143.167,191.667 153.833,191.667 164.5,191C 167.648,190.262 170.315,188.762 172.5,186.5C 172.56,187.043 172.893,187.376 173.5,187.5C 174.386,186.675 174.719,185.675 174.5,184.5C 174.167,184.5 173.833,184.5 173.5,184.5C 174.627,178.266 172.627,173.432 167.5,170C 150.879,168.408 134.212,168.075 117.5,169C 116.167,181 116.167,193 117.5,205C 135.539,205.916 153.539,205.582 171.5,204C 185.806,198.224 191.306,187.724 188,172.5C 185.605,163.771 180.105,157.938 171.5,155C 151.212,153.56 130.879,153.06 110.5,153.5C 110.5,151.5 110.5,149.5 110.5,147.5C 130.503,147.667 150.503,147.5 170.5,147C 181.972,142.184 187.972,133.517 188.5,121C 187.801,113.568 184.801,107.234 179.5,102C 177.473,100.121 175.14,98.954 172.5,98.5C 170.852,97.0735 168.852,96.2401 166.5,96C 152.837,95.5001 139.171,95.3334 125.5,95.5C 125.5,93.5 125.5,91.5 125.5,89.5C 140.17,89.3334 154.837,89.5001 169.5,90C 172.929,90.5334 176.262,91.3668 179.5,92.5 Z"/></g>
<g><path style="opacity:1" fill="#313131" d="M 621.5,92.5 C 620.833,92.5 620.5,92.8333 620.5,93.5C 619.833,93.5 619.5,93.8333 619.5,94.5C 618.339,109.995 618.172,125.661 619,141.5C 619.383,142.056 619.883,142.389 620.5,142.5C 621.058,143.79 622.058,144.623 623.5,145C 637.927,145.033 652.26,145.7 666.5,147C 667.126,147.75 667.626,148.584 668,149.5C 668.667,158.167 668.667,166.833 668,175.5C 667.626,176.416 667.126,177.25 666.5,178C 664.942,178.21 663.609,178.71 662.5,179.5C 647.83,179.667 633.163,179.5 618.5,179C 605.464,179.547 594.297,175.38 585,166.5C 580.863,160.171 578.863,153.171 579,145.5C 578.333,127.5 578.333,109.5 579,91.5C 578.826,72.6862 587.993,61.5195 606.5,58C 626.525,56.0859 646.525,56.0859 666.5,58C 667.126,58.7504 667.626,59.5838 668,60.5C 668.667,69.5 668.667,78.5 668,87.5C 667.692,88.3081 667.192,88.9747 666.5,89.5C 653.545,90.315 640.545,90.815 627.5,91C 625.292,91.1909 623.292,91.6909 621.5,92.5 Z"/></g>
<g><path style="opacity:1" fill="#313131" d="M 416.5,179.5 C 393.831,179.667 371.164,179.5 348.5,179C 346.899,178.727 345.399,178.227 344,177.5C 342.844,157.587 342.344,137.587 342.5,117.5C 342.667,98.1667 342.833,78.8333 343,59.5C 343.5,59 344,58.5 344.5,58C 355.073,56.8552 365.74,56.3552 376.5,56.5C 389.529,56.4337 402.529,56.9337 415.5,58C 426.027,60.5267 432.527,67.0267 435,77.5C 435.667,84.1667 435.667,90.8333 435,97.5C 433.881,102.239 431.381,106.072 427.5,109C 438,110.833 444.167,117 446,127.5C 446.667,137.833 446.667,148.167 446,158.5C 443.918,168.248 438.084,174.415 428.5,177C 424.363,177.839 420.363,178.673 416.5,179.5 Z M 381.5,87.5 C 387.176,87.3339 392.843,87.5006 398.5,88C 400.059,89.9958 400.726,92.3291 400.5,95C 400.333,96.8333 400.167,98.6667 400,100.5C 399.612,101.428 398.945,102.095 398,102.5C 392.55,103.43 387.05,103.763 381.5,103.5C 381.5,98.1667 381.5,92.8333 381.5,87.5 Z M 381.5,130.5 C 389.943,130.062 398.277,130.562 406.5,132C 407.635,136.748 407.802,141.581 407,146.5C 406.5,147 406,147.5 405.5,148C 397.588,148.183 389.754,148.683 382,149.5C 381.5,143.175 381.334,136.842 381.5,130.5 Z"/></g>
<g><path style="opacity:0.997" fill="#313131" d="M 773.5,96.5 C 772.601,97.9943 772.935,99.4943 774.5,101C 773.833,101.333 773.167,101.667 772.5,102C 783.09,103.76 789.424,110.26 791.5,121.5C 791.633,139.324 791.466,157.324 791,175.5C 790.283,176.044 789.783,176.711 789.5,177.5C 788.833,177.5 788.5,177.833 788.5,178.5C 787.209,178.263 786.209,178.596 785.5,179.5C 776.167,179.5 766.833,179.5 757.5,179.5C 755.29,178.799 753.456,177.465 752,175.5C 751.815,162.455 751.315,149.455 750.5,136.5C 749.624,135.749 748.624,135.249 747.5,135C 740.174,134.5 732.841,134.334 725.5,134.5C 725.815,148.579 725.482,162.579 724.5,176.5C 723.833,176.5 723.5,176.833 723.5,177.5C 722.833,177.5 722.5,177.833 722.5,178.5C 710.752,180.114 699.086,179.781 687.5,177.5C 686.333,138.171 686.167,98.8376 687,59.5C 687.903,58.2986 689.069,57.4652 690.5,57C 700.5,56.3333 710.5,56.3333 720.5,57C 721.766,57.3095 722.933,57.8095 724,58.5C 725.466,72.7359 725.966,87.0692 725.5,101.5C 727.604,101.799 729.604,101.466 731.5,100.5C 737.683,86.8028 743.85,73.1361 750,59.5C 751.419,58.5399 752.919,57.7065 754.5,57C 765.182,56.1676 775.849,56.3343 786.5,57.5C 787.167,58.5 787.833,59.5 788.5,60.5C 783.491,72.536 778.491,84.536 773.5,96.5 Z"/></g>
<g><path style="opacity:0.996" fill="#313131" d="M 562.5,117.5 C 561.883,117.611 561.383,117.944 561,118.5C 560.826,135.407 560.326,152.241 559.5,169C 560.527,172.264 559.694,175.097 557,177.5C 555.209,175.487 553.875,175.487 553,177.5C 524.39,176.19 496.057,176.19 468,177.5C 466.181,173.167 464.681,168.833 463.5,164.5C 463.333,129.832 463.5,95.1651 464,60.5C 465.214,58.9512 466.714,57.7845 468.5,57C 478.871,56.5521 489.038,56.3855 499,56.5C 500.667,57.5 502,58.8333 503,60.5C 503.5,88.8314 503.667,117.165 503.5,145.5C 510.5,145.5 517.5,145.5 524.5,145.5C 524.334,136.161 524.5,126.827 525,117.5C 525.465,116.069 526.299,114.903 527.5,114C 538.487,112.025 549.487,112.025 560.5,114C 561.823,114.816 562.489,115.983 562.5,117.5 Z"/></g>
<g><path style="opacity:1" fill="#385399" d="M 159.5,74.5 C 142.833,74.5 126.167,74.5 109.5,74.5C 109.169,95.6733 109.503,116.673 110.5,137.5C 119.308,138.832 128.475,139.498 138,139.5C 147.167,139.333 156.333,139.167 165.5,139C 171.678,138.49 175.845,135.323 178,129.5C 178.789,123.763 178.456,118.097 177,112.5C 175.108,108.942 172.275,106.442 168.5,105C 154.226,103.57 139.892,103.07 125.5,103.5C 124.673,108.985 124.173,114.652 124,120.5C 123.309,122.891 122.309,122.891 121,120.5C 120.5,121 120,121.5 119.5,122C 119.461,123.245 119.795,124.578 120.5,126C 120.37,127.059 119.87,127.892 119,128.5C 118.167,115.487 118.334,102.487 119.5,89.5C 122.222,91.3249 122.889,93.6582 121.5,96.5C 122.269,98.8008 123.269,98.9675 124.5,97C 140.592,95.9491 156.592,96.4491 172.5,98.5C 175.14,98.954 177.473,100.121 179.5,102C 184.801,107.234 187.801,113.568 188.5,121C 187.972,133.517 181.972,142.184 170.5,147C 150.503,147.5 130.503,147.667 110.5,147.5C 110.5,149.5 110.5,151.5 110.5,153.5C 130.879,153.06 151.212,153.56 171.5,155C 180.105,157.938 185.605,163.771 188,172.5C 191.306,187.724 185.806,198.224 171.5,204C 153.539,205.582 135.539,205.916 117.5,205C 116.167,193 116.167,181 117.5,169C 134.212,168.075 150.879,168.408 167.5,170C 172.627,173.432 174.627,178.266 173.5,184.5C 172.662,184.842 172.328,185.508 172.5,186.5C 170.315,188.762 167.648,190.262 164.5,191C 153.833,191.667 143.167,191.667 132.5,191C 131.531,186.263 131.197,181.43 131.5,176.5C 129.5,176.5 127.5,176.5 125.5,176.5C 125.5,183.5 125.5,190.5 125.5,197.5C 138.504,197.667 151.504,197.5 164.5,197C 170.814,197.015 175.314,194.181 178,188.5C 182.036,176.551 178.536,167.884 167.5,162.5C 170.524,162.053 170.857,161.22 168.5,160C 169.5,159 170.5,158 171.5,157C 168.361,155.982 165.195,155.149 162,154.5C 144.017,154.75 125.85,155.25 107.5,156C 106.253,154.542 106.253,153.042 107.5,151.5C 105.899,150.796 104.565,149.629 103.5,148C 103.339,123.662 104.173,99.1622 106,74.5C 107.364,75.2583 108.531,74.7583 109.5,73C 110.549,72.5078 111.549,72.6744 112.5,73.5C 113.696,73.1543 113.696,72.6543 112.5,72C 113.167,71.8333 113.833,71.6667 114.5,71.5C 129.688,71.6433 144.688,72.6433 159.5,74.5 Z"/></g>
<g><path style="opacity:0.988" fill="#395297" d="M 161.5,81.5 C 175.677,81.3781 187.177,86.7114 196,97.5C 204.785,114.637 204.618,131.637 195.5,148.5C 194.833,148.5 194.5,148.833 194.5,149.5C 193.711,149.783 193.044,150.283 192.5,151C 200.858,158.386 204.525,167.72 203.5,179C 202.679,202.484 190.679,215.817 167.5,219C 145.833,219.667 124.167,219.667 102.5,219C 101.507,200.243 101.174,181.41 101.5,162.5C 102.331,177.328 102.831,192.328 103,207.5C 103.075,192.896 103.908,178.396 105.5,164C 104.833,163.333 104.167,162.667 103.5,162C 105.417,162.027 107.084,162.861 108.5,164.5C 109.429,163.311 109.762,161.978 109.5,160.5C 126.17,160.667 142.837,160.5 159.5,160C 150.167,159.667 140.833,159.333 131.5,159C 130.5,158.667 129.5,158.333 128.5,158C 139.116,156.459 149.783,156.125 160.5,157C 162.269,158.019 163.936,158.186 165.5,157.5C 165.167,159.23 165.834,160.897 167.5,162.5C 148.59,162.826 129.757,162.493 111,161.5C 110.5,178.163 110.333,194.83 110.5,211.5C 130.169,211.667 149.836,211.5 169.5,211C 178.627,209.024 185.793,204.19 191,196.5C 199.016,177.894 194.85,162.727 178.5,151C 181.965,148.537 185.131,145.704 188,142.5C 198.859,123.339 196.025,106.672 179.5,92.5C 178.71,91.2058 177.71,90.0391 176.5,89C 159.503,88.5001 142.503,88.3334 125.5,88.5C 125.67,87.1779 125.337,86.0113 124.5,85C 122.744,84.7978 121.078,84.2978 119.5,83.5C 133.661,82.8333 147.661,82.1667 161.5,81.5 Z"/></g>
<g><path style="opacity:1" fill="#3a518e" d="M 161.5,81.5 C 147.661,82.1667 133.661,82.8333 119.5,83.5C 121.078,84.2978 122.744,84.7978 124.5,85C 125.337,86.0113 125.67,87.1779 125.5,88.5C 142.503,88.3334 159.503,88.5001 176.5,89C 177.71,90.0391 178.71,91.2058 179.5,92.5C 176.262,91.3668 172.929,90.5334 169.5,90C 154.837,89.5001 140.17,89.3334 125.5,89.5C 125.5,91.5 125.5,93.5 125.5,95.5C 139.171,95.3334 152.837,95.5001 166.5,96C 168.852,96.2401 170.852,97.0735 172.5,98.5C 156.592,96.4491 140.592,95.9491 124.5,97C 123.269,98.9675 122.269,98.8008 121.5,96.5C 122.889,93.6582 122.222,91.3249 119.5,89.5C 118.334,102.487 118.167,115.487 119,128.5C 119.87,127.892 120.37,127.059 120.5,126C 119.795,124.578 119.461,123.245 119.5,122C 120,121.5 120.5,121 121,120.5C 122.309,122.891 123.309,122.891 124,120.5C 124.173,114.652 124.673,108.985 125.5,103.5C 125.334,110.841 125.5,118.174 126,125.5C 126.669,118.53 127.169,118.196 127.5,124.5C 127.119,129.088 125.953,129.422 124,125.5C 123.667,125.833 123.333,126.167 123,126.5C 122.879,128.727 122.046,130.56 120.5,132C 121.056,132.383 121.389,132.883 121.5,133.5C 119.856,133.714 118.356,133.38 117,132.5C 116.5,115.503 116.333,98.5033 116.5,81.5C 131.5,81.5 146.5,81.5 161.5,81.5 Z"/></g>
<g><path style="opacity:0.004" fill="#131313" d="M 126.5,90.5 C 128.646,90.6964 128.812,91.6964 127,93.5C 126.517,92.552 126.351,91.552 126.5,90.5 Z"/></g>
<g><path style="opacity:0.004" fill="#000000" d="M 621.5,92.5 C 622.833,93.1667 622.833,93.1667 621.5,92.5 Z"/></g>
<g><path style="opacity:0.005" fill="#000000" d="M 726.5,92.5 C 727.634,94.9664 727.801,97.633 727,100.5C 726.503,97.854 726.336,95.1873 726.5,92.5 Z"/></g>
<g><path style="opacity:0.008" fill="#000000" d="M 620.5,93.5 C 620.833,93.5 621.167,93.5 621.5,93.5C 621.315,94.1701 620.981,94.1701 620.5,93.5 Z"/></g>
<g><path style="opacity:0.008" fill="#000000" d="M 619.5,94.5 C 619.833,94.5 620.167,94.5 620.5,94.5C 620.167,97.1667 619.833,97.1667 619.5,94.5 Z"/></g>
<g><path style="opacity:0.312" fill="#3d4e81" d="M 159.5,74.5 C 165.098,74.1557 170.432,74.8224 175.5,76.5C 153.853,75.5681 132.186,75.2348 110.5,75.5C 110.5,96.1667 110.5,116.833 110.5,137.5C 109.503,116.673 109.169,95.6733 109.5,74.5C 126.167,74.5 142.833,74.5 159.5,74.5 Z"/></g>
<g><path style="opacity:0.004" fill="#000000" d="M 773.5,96.5 C 774.833,97.1667 774.833,97.1667 773.5,96.5 Z"/></g>
<g><path style="opacity:1" fill="#3b549c" d="M 121.5,133.5 C 121.389,132.883 121.056,132.383 120.5,132C 122.046,130.56 122.879,128.727 123,126.5C 123.333,126.167 123.667,125.833 124,125.5C 125.953,129.422 127.119,129.088 127.5,124.5C 128.688,125.048 129.855,125.381 131,125.5C 131.499,120.177 131.666,114.844 131.5,109.5C 142.505,109.333 153.505,109.5 164.5,110C 168.333,111.167 170.833,113.667 172,117.5C 174.579,125.35 172.079,130.517 164.5,133C 150.171,133.5 135.837,133.667 121.5,133.5 Z"/></g>
<g><path style="opacity:0.008" fill="#30478a" d="M 112.5,134.5 C 112.167,134.5 111.833,134.5 111.5,134.5C 111.334,129.821 111.501,125.155 112,120.5C 113.397,125.175 113.564,129.842 112.5,134.5 Z"/></g>
<g><path style="opacity:0.008" fill="#0c0c0c" d="M 726.5,135.5 C 728.199,135.34 729.866,135.506 731.5,136C 729.598,136.199 728.098,137.033 727,138.5C 726.517,137.552 726.351,136.552 726.5,135.5 Z"/></g>
<g><path style="opacity:0.004" fill="#000000" d="M 745.5,135.5 C 746.833,136.167 746.833,136.167 745.5,135.5 Z"/></g>
<g><path style="opacity:0.004" fill="#133030" d="M 111.5,134.5 C 111.833,134.5 112.167,134.5 112.5,134.5C 112.906,136.109 112.906,137.443 112.5,138.5C 111.571,137.311 111.238,135.978 111.5,134.5 Z"/></g>
<g><path style="opacity:0.004" fill="#000000" d="M 620.5,141.5 C 621.833,142.167 621.833,142.167 620.5,141.5 Z"/></g>
<g><path style="opacity:0.008" fill="#000000" d="M 504.5,143.5 C 505.833,144.167 505.833,144.167 504.5,143.5 Z"/></g>
<g><path style="opacity:0.004" fill="#192138" d="M 195.5,148.5 C 195.833,148.5 196.167,148.5 196.5,148.5C 195.968,151.46 195.301,151.793 194.5,149.5C 195.167,149.5 195.5,149.167 195.5,148.5 Z"/></g>
<g><path style="opacity:0.004" fill="#241177" d="M 200.5,156.5 C 201.289,156.783 201.956,157.283 202.5,158C 201.184,158.528 200.517,158.028 200.5,156.5 Z"/></g>
<g><path style="opacity:0.004" fill="#0000ff" d="M 205.5,166.5 C 204.596,167.209 204.263,168.209 204.5,169.5C 203.378,167.712 203.211,165.712 204,163.5C 205.039,164.244 205.539,165.244 205.5,166.5 Z"/></g>
<g><path style="opacity:0.004" fill="#291f39" d="M 205.5,166.5 C 206.124,166.917 206.457,167.584 206.5,168.5C 205.892,171.145 205.392,173.812 205,176.5C 204.503,174.19 204.337,171.857 204.5,169.5C 204.263,168.209 204.596,167.209 205.5,166.5 Z"/></g>
<g><path style="opacity:0.307" fill="#242424" d="M 562.5,117.5 C 562.667,137.169 562.5,156.836 562,176.5C 561.5,177 561,177.5 560.5,178C 530.228,179.643 499.895,179.977 469.5,179C 467.349,178.735 465.682,177.735 464.5,176C 463.606,172.224 463.272,168.39 463.5,164.5C 464.681,168.833 466.181,173.167 468,177.5C 496.057,176.19 524.39,176.19 553,177.5C 553.875,175.487 555.209,175.487 557,177.5C 559.694,175.097 560.527,172.264 559.5,169C 560.326,152.241 560.826,135.407 561,118.5C 561.383,117.944 561.883,117.611 562.5,117.5 Z"/></g>
<g><path style="opacity:0.004" fill="#000000" d="M 724.5,176.5 C 725.833,177.167 725.833,177.167 724.5,176.5 Z"/></g>
<g><path style="opacity:0.012" fill="#404e4e" d="M 126.5,177.5 C 131.532,177.332 131.699,178.332 127,180.5C 126.517,179.552 126.351,178.552 126.5,177.5 Z"/></g>
<g><path style="opacity:0.008" fill="#000000" d="M 723.5,177.5 C 723.833,177.5 724.167,177.5 724.5,177.5C 724.315,178.17 723.981,178.17 723.5,177.5 Z"/></g>
<g><path style="opacity:0.008" fill="#000000" d="M 789.5,177.5 C 790.833,178.167 790.833,178.167 789.5,177.5 Z"/></g>
<g><path style="opacity:0.004" fill="#000000" d="M 606.5,178.5 C 607.833,179.167 607.833,179.167 606.5,178.5 Z"/></g>
<g><path style="opacity:0.004" fill="#000000" d="M 722.5,178.5 C 722.833,178.5 723.167,178.5 723.5,178.5C 723.315,179.17 722.981,179.17 722.5,178.5 Z"/></g>
<g><path style="opacity:0.004" fill="#000000" d="M 788.5,178.5 C 788.833,178.5 789.167,178.5 789.5,178.5C 789.315,179.17 788.981,179.17 788.5,178.5 Z"/></g>
<g><path style="opacity:0.004" fill="#000000" d="M 416.5,179.5 C 417.833,180.167 417.833,180.167 416.5,179.5 Z"/></g>
<g><path style="opacity:0.008" fill="#000000" d="M 418.5,179.5 C 419.833,180.167 419.833,180.167 418.5,179.5 Z"/></g>
<g><path style="opacity:0.004" fill="#000000" d="M 421.5,179.5 C 422.833,180.167 422.833,180.167 421.5,179.5 Z"/></g>
<g><path style="opacity:0.007" fill="#000000" d="M 610.5,180.5 C 612.628,179.371 614.961,179.204 617.5,180C 615.19,180.497 612.857,180.663 610.5,180.5 Z"/></g>
<g><path style="opacity:0.005" fill="#000000" d="M 662.5,179.5 C 663.552,179.351 664.552,179.517 665.5,180C 664.251,180.74 663.251,180.573 662.5,179.5 Z"/></g>
<g><path style="opacity:0.006" fill="#000000" d="M 722.5,179.5 C 722.103,180.525 721.437,180.692 720.5,180C 721.094,179.536 721.761,179.369 722.5,179.5 Z"/></g>
<g><path style="opacity:0.004" fill="#000000" d="M 757.5,179.5 C 757.103,180.525 756.437,180.692 755.5,180C 756.094,179.536 756.761,179.369 757.5,179.5 Z"/></g>
<g><path style="opacity:0.008" fill="#000000" d="M 785.5,179.5 C 786.239,179.369 786.906,179.536 787.5,180C 786.563,180.692 785.897,180.525 785.5,179.5 Z"/></g>
<g><path style="opacity:0.004" fill="#3132a5" d="M 173.5,184.5 C 173.833,184.5 174.167,184.5 174.5,184.5C 174.719,185.675 174.386,186.675 173.5,187.5C 172.893,187.376 172.56,187.043 172.5,186.5C 173.338,186.158 173.672,185.492 173.5,184.5 Z"/></g>
<g><path style="opacity:0.796" fill="#3d4f87" d="M 273.5,38.5 C 276.85,38.335 280.183,38.5017 283.5,39C 286.108,40.3783 287.608,42.545 288,45.5C 288.667,115.5 288.667,185.5 288,255.5C 287.606,258.893 285.773,261.06 282.5,262C 195.666,262.832 108.999,262.666 22.5,261.5C 108.501,261.667 194.501,261.5 280.5,261C 282.24,259.306 284.24,258.139 286.5,257.5C 286.5,186.5 286.5,115.5 286.5,44.5C 283.53,44.2542 282.197,42.5876 282.5,39.5C 279.287,39.81 276.287,39.4767 273.5,38.5 Z"/></g>
<g><path style="opacity:0.004" fill="#000000" d="M 386.5,198.5 C 387.833,199.167 387.833,199.167 386.5,198.5 Z"/></g>
<g><path style="opacity:0.004" fill="#000000" d="M 388.5,198.5 C 389.833,199.167 389.833,199.167 388.5,198.5 Z"/></g>
<g><path style="opacity:0.004" fill="#000000" d="M 390.5,198.5 C 391.833,199.167 391.833,199.167 390.5,198.5 Z"/></g>
<g><path style="opacity:0.004" fill="#000000" d="M 442.5,198.5 C 443.833,199.167 443.833,199.167 442.5,198.5 Z"/></g>
<g><path style="opacity:0.004" fill="#000000" d="M 458.5,198.5 C 459.833,199.167 459.833,199.167 458.5,198.5 Z"/></g>
<g><path style="opacity:0.004" fill="#000000" d="M 460.5,198.5 C 461.833,199.167 461.833,199.167 460.5,198.5 Z"/></g>
<g><path style="opacity:0.004" fill="#000000" d="M 462.5,198.5 C 463.833,199.167 463.833,199.167 462.5,198.5 Z"/></g>
<g><path style="opacity:0.004" fill="#000000" d="M 480.5,198.5 C 481.833,199.167 481.833,199.167 480.5,198.5 Z"/></g>
<g><path style="opacity:0.004" fill="#000000" d="M 595.5,198.5 C 596.833,199.167 596.833,199.167 595.5,198.5 Z"/></g>
<g><path style="opacity:0.004" fill="#000000" d="M 628.5,199.5 C 628.897,198.475 629.563,198.308 630.5,199C 629.906,199.464 629.239,199.631 628.5,199.5 Z"/></g>
<g><path style="opacity:0.004" fill="#000000" d="M 656.5,199.5 C 656.897,198.475 657.563,198.308 658.5,199C 657.906,199.464 657.239,199.631 656.5,199.5 Z"/></g>
<g><path style="opacity:0.005" fill="#000000" d="M 705.5,199.5 C 706.601,198.402 707.934,198.235 709.5,199C 708.207,199.49 706.873,199.657 705.5,199.5 Z"/></g>
<g><path style="opacity:0.004" fill="#000000" d="M 726.5,199.5 C 726.897,198.475 727.563,198.308 728.5,199C 727.906,199.464 727.239,199.631 726.5,199.5 Z"/></g>
<g><path style="opacity:0.008" fill="#28363b" d="M 111.5,193.5 C 112.326,198.316 112.826,203.316 113,208.5C 116.411,209.293 119.911,209.793 123.5,210C 119.514,210.499 115.514,210.666 111.5,210.5C 111.5,204.833 111.5,199.167 111.5,193.5 Z"/></g>
<g><path style="opacity:1" fill="#2e2e2e" d="M 549.5,200.5 C 553.5,200.5 557.5,200.5 561.5,200.5C 561.818,210.083 561.485,219.583 560.5,229C 561.227,230.399 561.727,231.899 562,233.5C 564.385,233.12 567.051,232.787 570,232.5C 572.352,232.305 574.352,232.972 576,234.5C 576.438,237.747 575.772,240.747 574,243.5C 565.959,242.608 557.959,242.275 550,242.5C 549.5,228.504 549.333,214.504 549.5,200.5 Z"/></g>
<g><path style="opacity:1" fill="#2d2d2d" d="M 688.5,223.5 C 688.013,222.527 687.513,221.527 687,220.5C 686.667,227.833 686.333,235.167 686,242.5C 683.442,242.485 680.942,242.818 678.5,243.5C 677.078,243.291 675.745,242.791 674.5,242C 675.833,228.667 675.833,215.333 674.5,202C 676.8,200.891 679.3,200.391 682,200.5C 684.167,200.833 686.333,201.167 688.5,201.5C 688.942,202.739 689.609,203.739 690.5,204.5C 690.932,205.71 691.599,206.71 692.5,207.5C 695.323,211.805 698.156,216.138 701,220.5C 701.333,219.833 701.667,219.167 702,218.5C 701.43,220.693 701.764,222.693 703,224.5C 703.5,216.507 703.666,208.507 703.5,200.5C 707.122,200.132 710.622,200.132 714,200.5C 713.83,214.523 713.83,228.523 714,242.5C 709.864,242.539 705.698,242.539 701.5,242.5C 697.499,235.851 693.166,229.518 688.5,223.5 Z"/></g>
<g><path style="opacity:0.004" fill="#000000" d="M 690.5,204.5 C 690.369,203.761 690.536,203.094 691,202.5C 691.692,203.437 691.525,204.103 690.5,204.5 Z"/></g>
<g><path style="opacity:0.999" fill="#303030" d="M 743.5,209.5 C 741.167,209.5 738.833,209.5 736.5,209.5C 736.5,211.833 736.5,214.167 736.5,216.5C 741.5,216.5 746.5,216.5 751.5,216.5C 751.5,219.833 751.5,223.167 751.5,226.5C 746.5,226.5 741.5,226.5 736.5,226.5C 736.5,228.833 736.5,231.167 736.5,233.5C 742.833,233.5 749.167,233.5 755.5,233.5C 756.082,237.315 755.248,240.649 753,243.5C 748.263,242.531 743.43,242.197 738.5,242.5C 737.469,241.751 736.302,241.085 735,240.5C 732.568,241.293 730.234,241.626 728,241.5C 727.5,228.504 727.333,215.504 727.5,202.5C 736.506,202.334 745.506,202.5 754.5,203C 752.986,204.439 752.653,205.939 753.5,207.5C 750.023,208.167 746.689,208.834 743.5,209.5 Z"/></g>
<g><path style="opacity:0.957" fill="#2c2c2c" d="M 518.5,199.5 C 525.483,199.052 532.15,200.219 538.5,203C 545.106,210.596 545.106,218.263 538.5,226C 533.045,229.483 527.045,231.15 520.5,231C 521.833,231.333 523.167,231.667 524.5,232C 522.221,232.406 520.887,233.739 520.5,236C 521.287,238.099 521.62,240.266 521.5,242.5C 518.113,242.864 514.946,243.198 512,243.5C 510.566,243.07 509.399,242.236 508.5,241C 509.826,227.863 509.826,214.696 508.5,201.5C 511.977,200.833 515.311,200.166 518.5,199.5 Z M 528.5,210.5 C 526.343,211.053 526.51,212.053 529,213.5C 529.464,212.906 529.631,212.239 529.5,211.5C 532.247,215.568 531.247,218.735 526.5,221C 524.5,221.667 522.5,221.667 520.5,221C 524.136,220.374 524.136,219.207 520.5,217.5C 521.407,214.579 521.74,211.579 521.5,208.5C 524.067,208.721 526.401,209.388 528.5,210.5 Z"/></g>
<g><path style="opacity:0.004" fill="#000000" d="M 760.5,203.5 C 761.525,203.897 761.692,204.563 761,205.5C 760.536,204.906 760.369,204.239 760.5,203.5 Z"/></g>
<g><path style="opacity:0.698" fill="#1e1e1e" d="M 756.5,205.5 C 755.566,206.568 755.232,207.901 755.5,209.5C 751.5,209.5 747.5,209.5 743.5,209.5C 746.689,208.834 750.023,208.167 753.5,207.5C 752.653,205.939 752.986,204.439 754.5,203C 745.506,202.5 736.506,202.334 727.5,202.5C 727.333,215.504 727.5,228.504 728,241.5C 730.234,241.626 732.568,241.293 735,240.5C 736.302,241.085 737.469,241.751 738.5,242.5C 734.946,242.15 731.612,242.816 728.5,244.5C 726.418,243.634 725.085,242.134 724.5,240C 724.621,226.906 724.621,213.739 724.5,200.5C 734.839,200.334 745.172,200.5 755.5,201C 756.38,202.356 756.714,203.856 756.5,205.5 Z"/></g>
<g><path style="opacity:0.009" fill="#000000" d="M 756.5,205.5 C 757.573,206.251 757.74,207.251 757,208.5C 756.517,207.552 756.351,206.552 756.5,205.5 Z"/></g>
<g><path style="opacity:0.004" fill="#000000" d="M 692.5,206.5 C 693.833,207.167 693.833,207.167 692.5,206.5 Z"/></g>
<g><path style="opacity:0.006" fill="#000000" d="M 528.5,210.5 C 528.5,211.167 528.833,211.5 529.5,211.5C 529.631,212.239 529.464,212.906 529,213.5C 526.51,212.053 526.343,211.053 528.5,210.5 Z"/></g>
<g><path style="opacity:0.004" fill="#000000" d="M 737.5,210.5 C 739.337,210.639 739.67,211.306 738.5,212.5C 737.702,212.043 737.369,211.376 737.5,210.5 Z"/></g>
<g><path style="opacity:0.006" fill="#000000" d="M 740.5,211.5 C 744.981,210.352 749.648,210.185 754.5,211C 749.845,211.499 745.179,211.666 740.5,211.5 Z"/></g>
<g><path style="opacity:0.999" fill="#2e2e2e" d="M 441.5,211.5 C 439.883,210.028 437.883,209.361 435.5,209.5C 433.117,209.361 431.117,210.028 429.5,211.5C 428.5,211.833 427.833,212.5 427.5,213.5C 422.157,229.825 427.824,235.825 444.5,231.5C 445.737,231.556 446.737,232.056 447.5,233C 446.718,235.74 446.218,238.574 446,241.5C 418.912,247.075 408.912,236.409 416,209.5C 420.863,202.735 427.529,199.402 436,199.5C 440.287,199.706 444.453,200.539 448.5,202C 447.545,205.099 446.711,208.266 446,211.5C 444.586,212.413 443.086,212.413 441.5,211.5 Z"/></g>
<g><path style="opacity:0.008" fill="#000000" d="M 441.5,211.5 C 440.833,212.167 440.833,212.167 441.5,211.5 Z"/></g>
<g><path style="opacity:0.008" fill="#000000" d="M 429.5,211.5 C 430.833,212.167 430.833,212.167 429.5,211.5 Z"/></g>
<g><path style="opacity:0.004" fill="#000000" d="M 427.5,213.5 C 428.833,214.167 428.833,214.167 427.5,213.5 Z"/></g>
<g><path style="opacity:1" fill="#313131" d="M 650.5,220.5 C 650.326,223.736 651.993,226.069 655.5,227.5C 656.183,220.611 656.85,213.778 657.5,207C 654.345,206.019 654.012,204.685 656.5,203C 655.833,202.667 655.167,202.333 654.5,202C 657.715,201.943 660.548,202.443 663,203.5C 662.252,216.107 662.419,228.774 663.5,241.5C 659.611,241.224 655.944,240.891 652.5,240.5C 649.885,235.033 646.385,229.7 642,224.5C 642.166,220 640,217.833 635.5,218C 636.451,217.282 636.617,216.449 636,215.5C 634.283,216.988 633.116,218.821 632.5,221C 632.806,226.89 633.473,233.223 634.5,240C 632.806,241.728 631.639,241.228 631,238.5C 630.085,239.328 629.419,240.328 629,241.5C 626.488,237.563 626.321,233.396 628.5,229C 627.956,228.283 627.289,227.783 626.5,227.5C 625.692,218.524 625.358,209.524 625.5,200.5C 629.884,200.174 634.217,200.508 638.5,201.5C 642.768,207.711 646.768,214.045 650.5,220.5 Z"/></g>
<g><path style="opacity:0.004" fill="#000000" d="M 737.5,214.5 C 738.833,215.167 738.833,215.167 737.5,214.5 Z"/></g>
<g><path style="opacity:0.997" fill="#2f2f2f" d="M 796.5,217.5 C 794.956,220.557 792.789,223.224 790,225.5C 789.308,226.437 789.475,227.103 790.5,227.5C 792.354,231.221 794.687,234.554 797.5,237.5C 799.113,238.838 799.613,240.505 799,242.5C 798.667,242.167 798.333,241.833 798,241.5C 796.601,242.227 795.101,242.727 793.5,243C 794.5,243.333 795.5,243.667 796.5,244C 793.167,244.114 789.834,243.781 786.5,243C 783.813,238.609 781.313,234.109 779,229.5C 778.536,230.094 778.369,230.761 778.5,231.5C 777.12,230.294 775.953,230.627 775,232.5C 774.824,235.882 774.324,239.215 773.5,242.5C 770.311,243.071 766.978,243.071 763.5,242.5C 762.501,228.516 762.167,214.516 762.5,200.5C 771.968,198.681 781.301,199.181 790.5,202C 795.881,205.77 797.881,210.937 796.5,217.5 Z M 776.5,209.5 C 776.56,208.957 776.893,208.624 777.5,208.5C 783.866,209.765 785.533,213.265 782.5,219C 779.986,220.252 777.32,220.752 774.5,220.5C 773.92,216.351 774.586,212.684 776.5,209.5 Z"/></g>
<g><path style="opacity:0.006" fill="#0c0c0c" d="M 776.5,209.5 C 778.306,210.024 779.972,210.691 781.5,211.5C 779.473,211.662 777.473,211.495 775.5,211C 776.056,210.617 776.389,210.117 776.5,209.5 Z"/></g>
<g><path style="opacity:1" fill="#2c2c2c" d="M 477.5,218.5 C 476.167,219.5 476.167,220.5 477.5,221.5C 482.072,228.083 487.072,234.416 492.5,240.5C 488.529,243.045 484.196,243.878 479.5,243C 476.255,239.267 473.255,235.434 470.5,231.5C 470.167,230.5 469.5,229.833 468.5,229.5C 468.5,228.833 468.167,228.5 467.5,228.5C 467.291,227.078 466.791,225.745 466,224.5C 465.83,230.528 465.33,236.528 464.5,242.5C 460.781,243.732 457.115,243.732 453.5,242.5C 454.335,228.515 454.335,214.515 453.5,200.5C 457.5,200.5 461.5,200.5 465.5,200.5C 465.334,205.844 465.501,211.177 466,216.5C 466.717,215.956 467.217,215.289 467.5,214.5C 471.178,210.335 474.511,205.835 477.5,201C 481.79,200.077 486.123,199.577 490.5,199.5C 487.405,206.61 483.072,212.943 477.5,218.5 Z"/></g>
<g><path style="opacity:0.009" fill="#000000" d="M 467.5,214.5 C 466.427,213.749 466.26,212.749 467,211.5C 467.483,212.448 467.649,213.448 467.5,214.5 Z"/></g>
<g><path style="opacity:0.004" fill="#000000" d="M 466.5,209.5 C 467.833,210.167 467.833,210.167 466.5,209.5 Z"/></g>
<g><path style="opacity:0.008" fill="#000000" d="M 466.5,207.5 C 467.833,208.167 467.833,208.167 466.5,207.5 Z"/></g>
<g><path style="opacity:0.008" fill="#000000" d="M 466.5,205.5 C 467.833,206.167 467.833,206.167 466.5,205.5 Z"/></g>
<g><path style="opacity:0.004" fill="#000000" d="M 466.5,203.5 C 467.833,204.167 467.833,204.167 466.5,203.5 Z"/></g>
<g><path style="opacity:0.004" fill="#000000" d="M 796.5,217.5 C 797.833,218.167 797.833,218.167 796.5,217.5 Z"/></g>
<g><path style="opacity:0.004" fill="#000000" d="M 396.5,218.5 C 397.833,219.167 397.833,219.167 396.5,218.5 Z"/></g>
<g><path style="opacity:0.007" fill="#000000" d="M 477.5,218.5 C 479.557,218.957 479.557,219.957 477.5,221.5C 477.5,220.5 477.5,219.5 477.5,218.5 Z"/></g>
<g><path style="opacity:0.005" fill="#000000" d="M 752.5,218.5 C 753.598,219.601 753.765,220.934 753,222.5C 752.51,221.207 752.343,219.873 752.5,218.5 Z"/></g>
<g><path style="opacity:0.004" fill="#000000" d="M 396.5,222.5 C 397.833,223.167 397.833,223.167 396.5,222.5 Z"/></g>
<g><path style="opacity:0.004" fill="#000000" d="M 688.5,223.5 C 687.833,224.167 687.833,224.167 688.5,223.5 Z"/></g>
<g><path style="opacity:0.004" fill="#000000" d="M 792.5,224.5 C 793.833,225.167 793.833,225.167 792.5,224.5 Z"/></g>
<g><path style="opacity:0.008" fill="#000000" d="M 396.5,225.5 C 397.833,226.167 397.833,226.167 396.5,225.5 Z"/></g>
<g><path style="opacity:0.004" fill="#000000" d="M 714.5,225.5 C 715.638,228.304 715.805,231.304 715,234.5C 714.502,231.518 714.335,228.518 714.5,225.5 Z"/></g>
<g><path style="opacity:0.007" fill="#000000" d="M 792.5,225.5 C 792.5,226.833 791.833,227.5 790.5,227.5C 790.833,226.5 791.5,225.833 792.5,225.5 Z"/></g>
<g><path style="opacity:0.004" fill="#000000" d="M 396.5,227.5 C 397.833,228.167 397.833,228.167 396.5,227.5 Z"/></g>
<g><path style="opacity:0.007" fill="#101010" d="M 737.5,227.5 C 741.846,227.334 746.179,227.501 750.5,228C 746.247,228.2 742.08,228.7 738,229.5C 737.536,228.906 737.369,228.239 737.5,227.5 Z"/></g>
<g><path style="opacity:0.004" fill="#000000" d="M 396.5,229.5 C 397.833,230.167 397.833,230.167 396.5,229.5 Z"/></g>
<g><path style="opacity:0.004" fill="#000000" d="M 562.5,229.5 C 563.525,229.897 563.692,230.563 563,231.5C 562.536,230.906 562.369,230.239 562.5,229.5 Z"/></g>
<g><path style="opacity:1" fill="#2d2d2d" d="M 577.5,242.5 C 581.616,228.686 586.616,214.852 592.5,201C 594.667,200.833 596.833,200.667 599,200.5C 601.625,200.581 603.959,201.248 606,202.5C 610.467,215.402 614.634,228.402 618.5,241.5C 618.192,242.308 617.692,242.975 617,243.5C 613.851,242.479 610.684,242.312 607.5,243C 606.009,240.379 605.342,237.545 605.5,234.5C 600.5,234.5 595.5,234.5 590.5,234.5C 590.461,237.321 589.795,239.988 588.5,242.5C 584.655,243.506 580.988,243.506 577.5,242.5 Z M 599.5,216.5 C 600.924,218.515 601.59,220.848 601.5,223.5C 602.043,223.56 602.376,223.893 602.5,224.5C 599.554,225.655 596.554,225.821 593.5,225C 594.085,223.698 594.751,222.531 595.5,221.5C 595.833,225.5 596.167,225.5 596.5,221.5C 598.279,220.33 599.279,218.664 599.5,216.5 Z M 599.5,216.5 C 597.915,215.998 597.415,214.998 598,213.5C 599.039,214.244 599.539,215.244 599.5,216.5 Z"/></g>
<g><path style="opacity:0.004" fill="#151515" d="M 467.5,228.5 C 468.167,228.5 468.5,228.833 468.5,229.5C 468.013,230.473 467.513,231.473 467,232.5C 466.235,230.934 466.402,229.601 467.5,228.5 Z"/></g>
<g><path style="opacity:0.582" fill="#242424" d="M 638.5,222.5 C 638.539,221.244 638.039,220.244 637,219.5C 636.5,227.159 636.334,234.826 636.5,242.5C 633.856,242.16 631.523,242.827 629.5,244.5C 628.252,243.96 627.085,243.293 626,242.5C 625.612,237.489 625.778,232.489 626.5,227.5C 627.289,227.783 627.956,228.283 628.5,229C 626.321,233.396 626.488,237.563 629,241.5C 629.419,240.328 630.085,239.328 631,238.5C 631.639,241.228 632.806,241.728 634.5,240C 633.473,233.223 632.806,226.89 632.5,221C 633.116,218.821 634.283,216.988 636,215.5C 636.617,216.449 636.451,217.282 635.5,218C 640,217.833 642.166,220 642,224.5C 646.385,229.7 649.885,235.033 652.5,240.5C 655.944,240.891 659.611,241.224 663.5,241.5C 662.419,228.774 662.252,216.107 663,203.5C 660.548,202.443 657.715,201.943 654.5,202C 655.167,202.333 655.833,202.667 656.5,203C 654.012,204.685 654.345,206.019 657.5,207C 656.85,213.778 656.183,220.611 655.5,227.5C 651.993,226.069 650.326,223.736 650.5,220.5C 651.315,221.429 652.148,222.429 653,223.5C 653.5,215.841 653.666,208.174 653.5,200.5C 657.122,200.132 660.622,200.132 664,200.5C 664.667,214.5 664.667,228.5 664,242.5C 660.386,242.36 656.719,242.693 653,243.5C 647.913,236.597 643.08,229.597 638.5,222.5 Z"/></g>
<g><path style="opacity:0.007" fill="#000000" d="M 638.5,222.5 C 638.649,223.552 638.483,224.552 638,225.5C 637.26,224.251 637.427,223.251 638.5,222.5 Z"/></g>
<g><path style="opacity:0.004" fill="#000000" d="M 470.5,231.5 C 469.833,232.167 469.833,232.167 470.5,231.5 Z"/></g>
<g><path style="opacity:0.004" fill="#000000" d="M 737.5,231.5 C 738.833,232.167 738.833,232.167 737.5,231.5 Z"/></g>
<g><path style="opacity:0.008" fill="#000000" d="M 778.5,231.5 C 779.833,232.167 779.833,232.167 778.5,231.5 Z"/></g>
<g><path style="opacity:0.007" fill="#000000" d="M 447.5,234.5 C 448.573,235.251 448.74,236.251 448,237.5C 447.517,236.552 447.351,235.552 447.5,234.5 Z"/></g>
<g><path style="opacity:0.01" fill="#000000" d="M 591.5,235.5 C 595.884,235.174 600.217,235.508 604.5,236.5C 600.516,236.252 596.35,236.585 592,237.5C 591.536,236.906 591.369,236.239 591.5,235.5 Z"/></g>
<g><path style="opacity:0.004" fill="#000000" d="M 411.5,236.5 C 412.833,237.167 412.833,237.167 411.5,236.5 Z"/></g>
<g><path style="opacity:0.008" fill="#000000" d="M 797.5,236.5 C 798.833,237.167 798.833,237.167 797.5,236.5 Z"/></g>
<g><path style="opacity:0.988" fill="#2d2d2d" d="M 350.5,199.5 C 355.887,199.405 361.22,199.905 366.5,201C 376.503,205.822 377.836,212.322 370.5,220.5C 376.075,224.051 377.908,229.051 376,235.5C 372.67,240.749 367.837,243.249 361.5,243C 355.131,243.411 348.964,243.578 343,243.5C 342.5,229.171 342.333,214.837 342.5,200.5C 345.385,200.806 348.052,200.473 350.5,199.5 Z M 353.5,226.5 C 356.518,226.335 359.518,226.502 362.5,227C 365.371,229.84 365.037,232.174 361.5,234C 358.854,234.497 356.187,234.664 353.5,234.5C 353.5,231.833 353.5,229.167 353.5,226.5 Z M 361.5,210.5 C 362.942,212.817 362.608,214.984 360.5,217C 358.19,217.497 355.857,217.663 353.5,217.5C 353.198,214.941 353.532,212.607 354.5,210.5C 353.141,208.991 353.641,208.324 356,208.5C 358.111,208.701 359.945,209.367 361.5,210.5 Z"/></g>
<g><path style="opacity:0.004" fill="#131313" d="M 361.5,210.5 C 361.631,211.239 361.464,211.906 361,212.5C 356.295,211.118 356.461,210.451 361.5,210.5 Z"/></g>
<g><path style="opacity:0.004" fill="#000000" d="M 354.5,210.5 C 355.363,209.537 356.03,209.537 356.5,210.5C 355.743,211.773 355.077,211.773 354.5,210.5 Z"/></g>
<g><path style="opacity:0.004" fill="#000000" d="M 618.5,237.5 C 619.833,238.167 619.833,238.167 618.5,237.5 Z"/></g>
<g><path style="opacity:0.008" fill="#151515" d="M 756.5,235.5 C 757.613,236.946 757.78,238.613 757,240.5C 756.506,238.866 756.34,237.199 756.5,235.5 Z"/></g>
<g><path style="opacity:0.91" fill="#2a2a2a" d="M 384.5,200.5 C 388.5,200.5 392.5,200.5 396.5,200.5C 395.889,211.499 395.722,222.499 396,233.5C 400.178,232.625 404.512,232.291 409,232.5C 409.833,233.333 410.667,234.167 411.5,235C 410.88,237.473 410.214,239.973 409.5,242.5C 408.914,242.709 408.414,243.043 408,243.5C 400.128,242.689 392.628,242.356 385.5,242.5C 384.501,228.516 384.167,214.516 384.5,200.5 Z"/></g>
<g><path style="opacity:0.004" fill="#000000" d="M 577.5,242.5 C 576.833,243.167 576.833,243.167 577.5,242.5 Z"/></g>
<g><path style="opacity:0.004" fill="#000000" d="M 487.5,243.5 C 488.833,244.167 488.833,244.167 487.5,243.5 Z"/></g>
<g><path style="opacity:0.004" fill="#000000" d="M 678.5,243.5 C 679.239,243.369 679.906,243.536 680.5,244C 679.563,244.692 678.897,244.525 678.5,243.5 Z"/></g>
</svg>
